<svg xmlns:xlink="http://www.w3.org/1999/xlink" xmlns="http://www.w3.org/2000/svg" width="1051" height="778" viewBox="0 0 1051 778" fill="none"><div xmlns="" id="in-page-channel-node-id" data-channel-name="in_page_channel_wpWhAM"/>
<rect width="1051" height="778" fill="#F2F5F7"/>
<path d="M283.521 570.99C283.521 570.99 296.298 587.343 289.199 594.126C277.421 605.325 262.541 581.086 262.541 581.086L283.521 570.99Z" fill="#FFD4D2"/>
<path d="M198.184 627.459L196.817 626.723C193.242 624.725 188.72 625.513 186.091 628.668L175.417 641.287C173.682 643.338 170.685 643.811 168.424 642.339L194.504 595.438L214.221 608.951L198.184 627.459Z" fill="black"/>
<path d="M194.503 595.388L191.348 593.338L166.951 641.712L168.423 642.29L194.503 595.388Z" fill="#FFC627"/>
<path d="M182.41 624.518L186.354 630.775" stroke="#FFC627" stroke-width="1.03032" stroke-miterlimit="10" stroke-linecap="round" stroke-linejoin="round"/>
<path d="M185.775 622.518L189.719 628.775" stroke="#FFC627" stroke-width="1.03032" stroke-miterlimit="10" stroke-linecap="round" stroke-linejoin="round"/>
<path d="M454.88 756.176V757.753C454.88 761.854 457.825 765.377 461.873 766.113L478.121 769.163C480.75 769.636 482.643 772.002 482.485 774.684L428.8 775.262L428.012 756.596L454.88 756.176Z" fill="black"/>
<path d="M428.853 775.211L428.801 777.893L482.643 776.526L482.538 774.686L428.853 775.211Z" fill="#FFC627"/>
<path d="M454.25 767.219L459.403 761.855" stroke="#FFC627" stroke-width="1.03032" stroke-miterlimit="10" stroke-linecap="round" stroke-linejoin="round"/>
<path d="M457.088 769.164L462.293 763.801" stroke="#FFC627" stroke-width="1.03032" stroke-miterlimit="10" stroke-linecap="round" stroke-linejoin="round"/>
<path d="M403.825 500.162C410.713 526.031 426.802 560.997 468.183 578.769C469.813 579.453 471.18 580.557 472.337 581.871L473.02 582.713C478.173 588.97 475.176 598.434 467.394 600.59C465.607 601.063 463.766 601.116 461.979 600.748C454.722 599.118 435.005 593.124 414.551 573.196C396.779 555.897 384.686 533.603 379.217 509.416L371.383 474.713C394.15 477.026 400.092 486.228 403.825 500.162Z" fill="black"/>
<path d="M338.626 537.287C338.626 537.287 332.158 566.364 359.395 605.904C386.631 645.444 418.968 693.608 413.237 759.333L467.71 759.018C467.71 759.018 468.762 674.994 439.948 629.355C411.186 583.715 395.202 551.221 393.572 536.498L338.626 537.287Z" fill="#FFC627"/>
<path d="M381.688 550.273L326.111 657.064C310.81 686.561 272.742 695.237 246.189 675.257L192.084 634.612L216.323 597.806L260.333 629.775C271.48 638.976 288.306 634.717 293.774 621.362L322.167 552.902L381.688 550.273Z" fill="#FFC627"/>
<path d="M302.607 565.258L336.154 467.984L372.907 474.662L399.25 553.585L302.607 565.258Z" fill="black"/>
<path d="M351.77 485.754C352.506 495.324 343.567 496.586 334.05 495.324C301.976 490.907 274.74 514.621 274.95 541.91C275.055 558.788 281.47 567.885 286.675 574.93L265.486 585.289C265.486 585.289 229.994 546.327 267.379 498.742C293.984 464.88 338.151 468.298 338.151 468.298L351.77 485.754Z" fill="black"/>
<path d="M284.574 580.191L290.989 590.392" stroke="#1D1D1B" stroke-width="1.03032" stroke-miterlimit="10" stroke-linecap="round" stroke-linejoin="round"/>
<path d="M288.938 593.387L280.998 580.873" stroke="#1D1D1B" stroke-width="1.03032" stroke-miterlimit="10" stroke-linecap="round" stroke-linejoin="round"/>
<path d="M278.789 583.605L286.992 596.225" stroke="#1D1D1B" stroke-width="1.03032" stroke-miterlimit="10" stroke-linecap="round" stroke-linejoin="round"/>
<path d="M283.521 596.91L276.686 587.551L283.521 596.91Z" fill="#FDAB9A"/>
<path d="M280.997 596.91L276.633 587.551" stroke="#1D1D1B" stroke-width="0.819444" stroke-miterlimit="10" stroke-linecap="round" stroke-linejoin="round"/>
<path d="M365.021 473.297L365.757 491.122L343.41 469.354L365.021 473.297Z" fill="#FFD4D2"/>
<path d="M399.25 553.587L383.16 496.117" stroke="white" stroke-width="1.03032" stroke-miterlimit="10" stroke-linecap="round"/>
<path d="M325.375 469.248L366.23 492.383L372.908 474.664" stroke="white" stroke-width="1.03032" stroke-miterlimit="10"/>
<path d="M351.191 607.588L378.796 556.375" stroke="black" stroke-width="1.03032" stroke-miterlimit="10" stroke-linecap="round" stroke-linejoin="round"/>
<path d="M458.982 593.809L471.286 598.593" stroke="#1D1D1B" stroke-width="1.03032" stroke-miterlimit="10" stroke-linecap="round" stroke-linejoin="round"/>
<path d="M474.02 595.701L458.93 589.707" stroke="#1D1D1B" stroke-width="1.03032" stroke-miterlimit="10" stroke-linecap="round" stroke-linejoin="round"/>
<path d="M461.295 586.709L476.596 592.966" stroke="#1D1D1B" stroke-width="1.03032" stroke-miterlimit="10" stroke-linecap="round" stroke-linejoin="round"/>
<path d="M476.544 588.972L465.029 583.504L476.544 588.972Z" fill="#FDAB9A"/>
<path d="M476.544 588.972L465.029 583.504" stroke="#1D1D1B" stroke-width="1.03032" stroke-miterlimit="10" stroke-linecap="round" stroke-linejoin="round"/>
<path d="M361.972 433.334C361.972 433.334 390.26 443.429 382.426 459.046L360.395 462.989L361.972 433.334Z" fill="#181B21"/>
<path d="M343.41 469.353L348.878 441.906L365.021 444.43V473.717L343.41 469.353Z" fill="#FFD4D2"/>
<path d="M345.83 462.463L345.883 462.569C345.83 462.516 345.83 462.516 345.83 462.463Z" fill="#FDFCEF"/>
<path d="M345.775 462.412C345.828 462.465 345.828 462.465 345.775 462.412V462.412Z" fill="#FDFCEF"/>
<path d="M363.074 450.736C363.232 450.736 363.39 450.736 363.6 450.789C363.442 450.789 363.179 450.789 363.074 450.736Z" fill="#FDFCEF"/>
<path d="M365.442 451.053C365.389 451.106 365.389 451.106 365.442 451.053C365.389 451.106 365.442 451.053 365.442 451.053Z" fill="#FDFCEF"/>
<path d="M365.073 443.328L365.178 453.897L346.564 443.749L365.073 443.328Z" fill="#FFD4D2"/>
<path d="M370.858 425.236C370.858 425.236 371.489 418.295 365.074 416.455" stroke="black" stroke-width="1.03032" stroke-miterlimit="10" stroke-linecap="round" stroke-linejoin="round"/>
<path d="M371.066 424.338C371.066 424.338 369.436 419.29 366.755 418.291C368.069 420.447 369.279 422.13 368.963 424.391C368.648 426.599 366.65 429.333 364.967 430.858C364.178 431.594 363.179 432.12 362.18 432.488C361.497 432.751 359.709 433.277 358.342 433.066C357.027 432.909 355.766 432.172 355.082 431.068L362.338 413.506C362.286 413.454 370.383 416.714 371.066 424.338Z" fill="#1D1D1B"/>
<path d="M343.252 432.439C341.149 427.917 340.413 424.394 339.572 421.975C338.257 418.084 340.255 413.825 344.093 412.353C347.564 411.091 351.297 413.983 357.396 415.613C357.659 415.666 359.026 413.72 359.237 413.773C359.92 413.983 360.341 414.561 361.077 414.719C362.654 415.087 364.547 413.405 365.967 413.773C367.439 414.193 369.016 414.561 370.173 415.613C371.33 416.717 371.803 418.452 371.698 420.082C371.645 421.607 371.645 421.344 371.172 422.817C371.277 423.027 370.857 424.972 370.909 425.183C374.432 432.123 377.64 435.751 377.64 435.751L374.59 436.698C374.59 436.698 379.375 446.32 371.645 447.371C369.437 447.687 362.339 447.582 357.554 446.215C357.554 446.32 347.301 441.114 343.252 432.439Z" fill="#FFD4D2"/>
<path opacity="0.17" d="M370.805 424.445C370.805 424.445 369.175 419.397 366.493 418.398C367.808 420.554 369.017 422.237 368.701 424.498C368.386 426.706 366.388 429.44 364.705 430.965C363.917 431.701 362.918 432.227 361.919 432.595C361.235 432.858 359.447 433.384 358.08 433.173C356.766 433.016 355.504 432.28 354.82 431.175L362.339 413.508C362.287 413.456 370.121 416.821 370.805 424.445Z" fill="#4F4F4F"/>
<g opacity="0.27">
<g opacity="0.27">
<g opacity="0.27">
<path opacity="0.27" d="M363.285 444.416C363.285 444.416 368.017 460.874 345.828 462.451L344.408 448.149L363.285 444.416Z" fill="#1D1D1B"/>
</g>
</g>
</g>
<path d="M370.857 425.236C370.91 422.923 373.118 420.504 373.013 418.191C372.96 416.508 371.698 415.036 370.173 414.195C368.228 413.09 365.967 412.88 363.706 412.88C362.024 412.88 360.288 413.09 358.711 412.565C357.712 412.249 356.871 411.671 355.924 411.198C352.559 409.515 348.51 409.41 345.04 410.882C341.465 412.407 338.731 415.509 336.785 418.874C336.364 419.61 335.944 420.347 335.733 421.188C335.471 422.187 335.418 423.186 335.418 424.185C335.523 427.182 336.207 430.179 337.521 432.913C338.31 434.596 339.572 436.331 341.465 436.541C343.042 436.752 344.514 435.805 345.881 435.016C348.405 433.492 351.139 432.335 353.979 431.494C354.242 431.388 354.557 431.336 354.82 431.336C355.188 431.336 355.556 431.494 355.924 431.599C358.29 432.335 360.867 431.494 362.97 430.284C365.441 428.812 367.702 426.498 368.07 423.659C368.438 420.662 367.176 418.506 364.915 416.508C368.701 417.718 370.594 421.03 370.752 424.763" fill="#181B21"/>
<path d="M361.551 455.103C357.923 464.726 348.143 470.562 337.89 469.773L323.798 468.669C320.748 460.361 324.482 454.63 335.681 448.11C338.047 446.743 338.573 443.483 336.47 441.801C336.417 441.748 336.575 441.853 336.47 441.801C330.528 437.752 326.217 426.027 341.57 413.092" fill="#181B21"/>
<path d="M361.551 455.103C362.445 452.684 362.97 450.108 362.918 447.531C362.813 440.906 355.925 438.54 355.925 438.54C354.084 437.331 352.875 435.49 352.56 433.492L348.879 439.171L353.138 454.472L361.551 455.103Z" fill="#181B21"/>
<path d="M375.065 438.644C377.221 445.532 369.859 438.328 369.859 438.328L375.065 438.644Z" fill="#1D1D1B"/>
<path d="M370.857 431.757C370.857 431.757 368.228 427.182 363.391 432.388C363.443 432.388 367.65 434.544 370.857 431.757Z" fill="white"/>
<path d="M352.453 436.857C352.769 437.856 352.401 438.645 353.294 439.276C353.925 439.697 356.239 440.328 357.553 441.222C363.022 445.06 361.339 456.68 353.242 460.466" stroke="white" stroke-width="1.03032" stroke-miterlimit="10" stroke-linecap="round" stroke-linejoin="round"/>
<path d="M370.384 434.022C370.489 434.548 369.28 435.231 367.702 435.599C366.125 435.967 364.758 435.81 364.6 435.284C364.495 434.758 365.704 434.074 367.282 433.706C368.912 433.338 370.279 433.496 370.384 434.022Z" fill="#FFCCCA"/>
<path d="M361.551 431.599C361.551 431.599 363.759 426.814 369.753 427.866" stroke="#1D1D1B" stroke-width="1.03032" stroke-miterlimit="10" stroke-linecap="round" stroke-linejoin="round"/>
<path d="M347.932 427.443C355.714 433.647 363.285 431.964 366.072 427.285C368.859 422.553 365.02 416.506 365.02 416.506" stroke="white" stroke-width="1.03032" stroke-miterlimit="10" stroke-linecap="round" stroke-linejoin="round"/>
<path d="M362.077 421.555C362.077 421.555 367.808 429.442 358.449 431.44" stroke="white" stroke-width="1.03032" stroke-miterlimit="10" stroke-linecap="round" stroke-linejoin="round"/>
<path d="M358.344 424.553C358.344 424.553 360.5 430.757 355.031 431.125" stroke="white" stroke-width="1.03032" stroke-miterlimit="10" stroke-linecap="round" stroke-linejoin="round"/>
<path d="M355.451 432.28C355.451 432.28 353.033 425.97 349.299 426.706C345.566 427.39 346.723 436.802 350.509 437.38C353.033 437.748 354.137 436.013 354.137 436.013" fill="#FFD4D2"/>
<path d="M350.299 429.707L353.559 433.02C353.559 433.02 350.194 432.494 350.509 435.281" stroke="black" stroke-width="1.03032" stroke-miterlimit="10" stroke-linecap="round" stroke-linejoin="round"/>
<path d="M369.963 431.176C369.911 430.966 369.858 430.755 369.753 430.598C369.28 430.282 368.701 429.967 368.018 429.914C367.755 430.282 367.702 430.913 367.86 431.597C367.965 432.175 368.228 432.648 368.544 432.964C369.017 432.859 369.49 432.648 369.963 432.385C370.069 432.07 370.069 431.597 369.963 431.176Z" fill="#1D1D1B"/>
<path d="M461.978 600.748C463.766 601.168 465.606 601.116 467.394 600.59C475.176 598.434 478.173 588.97 473.02 582.713L472.337 581.871C471.232 580.504 469.813 579.453 468.183 578.769C453.25 572.354 441.577 563.679 432.481 554.004L413.92 572.617C414.13 572.775 414.288 572.985 414.498 573.143C434.952 593.071 454.67 599.118 461.978 600.748Z" fill="#FFD4D2"/>
<path d="M503.412 743.139L493.422 775.423L549.42 775.107L549.315 774.477C548.736 771.795 546.633 769.692 543.899 769.219L532.752 767.273C529.702 766.747 527.389 764.276 526.968 761.226L524.812 744.664L503.412 743.139Z" fill="#4F4F4F"/>
<path d="M493.002 776.267L494.369 773.322L549.105 773.585L549.631 775.846L493.002 776.267Z" fill="black"/>
<path d="M531.753 764.172L528.125 768.326" stroke="black" stroke-width="1.03032" stroke-miterlimit="10" stroke-linecap="round" stroke-linejoin="round"/>
<path d="M534.698 765.695L531.648 769.797" stroke="black" stroke-width="1.03032" stroke-miterlimit="10" stroke-linecap="round" stroke-linejoin="round"/>
<path d="M530.176 756.333L484.432 755.071C484.432 755.071 499.943 662.582 531.859 643.285C554.048 629.878 566.877 537.179 566.877 537.179L626.924 536.811C626.977 536.863 549.579 710.746 530.176 756.333Z" fill="#FFC627"/>
<path d="M673.193 752.286L678.714 776.946L727.509 776.683V775.053C727.088 772.371 725.09 770.268 722.461 769.637L706.371 765.904C703.164 765.168 700.64 762.696 699.799 759.489L696.802 747.764L673.193 752.286Z" fill="#4F4F4F"/>
<path d="M678.609 775.736L678.977 777.892H727.614L727.509 775.053L678.609 775.736Z" fill="black"/>
<path d="M706.372 764.59L702.744 768.744" stroke="black" stroke-width="1.03032" stroke-miterlimit="10" stroke-linecap="round" stroke-linejoin="round"/>
<path d="M708.79 765.432L705.793 769.533" stroke="black" stroke-width="1.03032" stroke-miterlimit="10" stroke-linecap="round" stroke-linejoin="round"/>
<path d="M640.489 546.487L700.851 756.334L663.151 764.011C663.151 764.011 635.126 734.04 634.81 689.715C634.705 672.522 630.919 655.538 623.663 639.922L579.391 545.33L640.489 546.487Z" fill="#FFC627"/>
<path d="M622.665 437.067C622.665 437.067 629.553 444.954 618.143 447.004C606.733 449.108 621.929 428.549 621.929 428.549L622.665 437.067Z" fill="#292A2D"/>
<path d="M665.256 493.066C662.732 519.724 664.993 562.525 697.54 593.652C698.802 594.862 699.749 596.386 700.327 598.016L700.695 599.068C703.324 606.692 697.225 614.527 689.18 613.843C687.34 613.685 685.605 613.107 684.027 612.108C677.77 608.059 661.365 595.545 649.167 569.728C638.545 547.329 634.97 522.196 638.282 497.641L643.067 462.359C657.159 465.619 666.623 478.712 665.256 493.066Z" fill="#FFD4D2"/>
<path d="M673.352 557.74C663.992 534.447 663.624 510.365 665.254 493.066C666.621 478.712 657.157 465.619 643.118 462.359L638.333 497.641C635.021 522.196 638.596 547.329 649.217 569.728L673.352 557.74Z" fill="black"/>
<path d="M566.93 538.761L578.655 459.26L643.118 462.362L642.855 552.537L566.93 538.761Z" fill="black"/>
<path d="M618.669 462.884L599.582 459.887C599.582 459.887 600.003 456.259 600.476 451.737C600.686 450.002 600.844 448.161 601.054 446.321C601.738 440.222 602.369 434.333 602.421 434.07L619.037 433.965L618.984 438.276L618.721 441.589L618.669 462.884Z" fill="#FFD4D2"/>
<path d="M610.258 442.016L600.268 450.06C600.478 448.325 600.636 446.485 600.846 444.645L610.258 442.016Z" fill="#FDAB9A"/>
<path d="M618.986 449.582L608.47 461.413L600.477 452.264L598.742 466.723L620.668 466.986L618.986 449.582Z" fill="black"/>
<path d="M608.52 414.829C608.52 414.829 594.218 407.153 598.057 425.503L612.674 421.98L608.52 414.829Z" fill="#292A2D"/>
<path d="M612.57 416.297C611.992 416.244 611.414 416.192 610.835 416.087C608.995 415.771 606.997 413.878 603.737 418.453C599.636 424.132 591.275 431.493 591.275 431.493L593.694 433.386C593.694 433.386 586.175 447.162 600.214 447.267C620.773 445.058 627.345 430.336 627.345 430.336C627.345 430.336 632.866 417.717 612.57 416.297Z" fill="#FFD4D2"/>
<path opacity="0.17" d="M613.041 431.914C611.254 431.335 609.308 430.704 607.994 429.337C606.469 427.707 605.575 425.657 605.68 423.448C605.785 421.555 606.889 419.137 608.572 418.19C607.047 418.821 605.522 419.452 603.945 419.768C602.368 420.083 600.632 420.031 599.16 419.347L604.155 412.512L616.038 419.084L613.041 431.914Z" fill="#1D1D1B"/>
<path d="M621.981 439.91C626.714 438.018 629.921 433.338 631.393 427.817C631.393 427.817 634.916 413.41 617.512 413.357C613.201 413.357 606.47 414.672 602.579 416.512C602.211 416.67 601.843 416.88 601.633 417.196C601.423 417.511 601.423 418.037 601.738 418.247C601.896 418.353 602.054 418.353 602.211 418.405C605.734 419.772 606.786 419.877 609.415 417.932C607.785 420.14 606.418 422.769 606.944 425.451C607.364 427.501 608.889 429.132 610.572 430.341C612.096 431.445 613.832 432.339 615.724 432.234" fill="#292A2D"/>
<path d="M605.209 432.705C604.525 431.285 601.844 426.343 597.637 430.549C597.532 430.654 597.532 430.812 597.637 430.865C598.163 431.285 600.635 431.443 604.946 433.02C605.156 433.073 605.262 432.863 605.209 432.705Z" fill="white"/>
<path d="M613.148 423.295C612.622 425.608 612.885 428.08 613.884 430.235C614.094 430.709 614.357 431.182 614.725 431.603C615.514 432.444 616.671 432.759 617.775 433.022" stroke="white" stroke-width="1.03032" stroke-miterlimit="10" stroke-linecap="round" stroke-linejoin="round"/>
<path d="M603.367 434.599C603.209 435.177 601.842 435.335 600.37 434.862C598.898 434.389 597.846 433.547 598.004 432.969C598.162 432.391 599.529 432.233 601.001 432.706C602.526 433.179 603.577 434.021 603.367 434.599Z" fill="#FDAB9A"/>
<path d="M606.312 430.602C606.312 430.602 605.313 425.659 600.686 427.131" stroke="#1D1D1B" stroke-width="1.03032" stroke-miterlimit="10" stroke-linecap="round" stroke-linejoin="round"/>
<path d="M593.377 436.701C593.062 437.595 593.062 438.383 593.377 438.489C593.693 438.594 594.219 438.015 594.587 437.121C594.902 436.228 594.902 435.439 594.587 435.334C594.219 435.229 593.693 435.86 593.377 436.701Z" fill="#2D2D2D"/>
<path d="M618.721 441.643C617.985 441.432 617.249 441.064 616.618 440.538C615.303 439.487 614.83 437.646 614.83 437.646C616.723 437.962 618.037 438.172 618.984 438.33L618.721 441.643Z" fill="#FDAB9A"/>
<path d="M615.356 433.438C615.356 433.438 617.511 430.23 621.034 430.914C623.716 431.44 625.083 433.543 624.61 436.119C623.926 439.853 619.72 441.272 616.407 439.379C614.567 438.328 614.041 436.225 614.041 436.225L615.356 433.438Z" fill="#FFD4D2"/>
<path d="M621.035 432.959L616.881 436.114C616.881 436.114 619.72 434.221 621.876 437.271" stroke="black" stroke-width="1.03032" stroke-miterlimit="10" stroke-linecap="round" stroke-linejoin="round"/>
<path d="M613.149 374.603C618.039 376.338 621.457 379.704 622.561 384.699C623.297 387.906 625.768 390.482 628.976 391.376C633.498 392.638 640.123 393.848 645.328 400.736C646.8 402.681 647.011 403.838 647.484 405.1C649.429 410.463 646.538 415.563 642.121 417.824C639.492 419.191 636.39 419.139 633.655 417.982C631.92 417.246 629.028 416.667 627.398 419.927L625.243 419.559V419.507C624.822 415.458 627.609 411.725 631.605 411.041C631.71 411.041 631.762 410.989 631.868 410.989C635.022 410.568 636.39 406.572 634.076 404.364C633.655 403.943 633.13 403.575 632.446 403.259C630.553 402.366 628.397 402.313 626.452 402.997C624.296 403.785 618.144 405.678 612.834 405.205C606.839 405.257 601.687 403.575 603.79 397.265C600.845 396.371 598.321 394.479 597.428 392.218C597.375 392.112 597.375 392.06 597.322 391.955C593.589 381.176 604.368 371.448 613.149 374.603Z" fill="#292A2D"/>
<path d="M603.736 397.32C607.101 404.471 611.098 402.367 625.084 396.163C639.07 389.906 646.589 412.831 636.336 412.253C628.975 411.884 626.766 416.669 626.766 416.669" stroke="#C8C6C8" stroke-width="1.03032" stroke-miterlimit="10" stroke-linecap="round" stroke-linejoin="round"/>
<path d="M629.447 417.716L626.766 416.875L626.555 414.246L625.398 415.771C625.398 418.295 628.29 418.768 628.29 418.768L629.447 417.716Z" fill="#FFC627"/>
<path d="M642.856 552.535L642.436 487.389" stroke="white" stroke-width="1.03032" stroke-miterlimit="10" stroke-linecap="round" stroke-linejoin="round"/>
<path d="M588.856 459.729L574.029 458.941C567.667 458.573 561.83 462.358 559.517 468.247L536.381 527.348C532.648 536.865 538.905 547.275 549.001 548.537L556.782 549.484L588.856 459.729Z" fill="black"/>
<path d="M570.506 511.365L578.34 488.545" stroke="white" stroke-width="1.03032" stroke-miterlimit="10" stroke-linecap="round"/>
<path d="M599.162 460.309L608.311 468.932L620.142 460.834" stroke="white" stroke-width="1.03032" stroke-miterlimit="10" stroke-linecap="round"/>
<path d="M607.943 494.171L608.469 468.406L607.943 494.171Z" fill="black"/>
<path d="M608.469 468.355L607.943 494.172" stroke="white" stroke-width="1.03032" stroke-miterlimit="10"/>
<path d="M553.943 549.17L616.093 555.742C616.093 555.742 625.032 558.003 627.03 550.326C629.028 542.702 626.609 537.707 613.727 535.394C589.435 532.817 550.683 524.404 550.683 524.404L546.109 529.925C540.115 537.181 544.584 548.171 553.943 549.17Z" fill="black"/>
<path d="M627.661 543.806L614.621 540.178" stroke="#1D1D1B" stroke-width="1.03032" stroke-miterlimit="10" stroke-linecap="round" stroke-linejoin="round"/>
<path d="M627.871 547.068L611.045 543.598" stroke="#1D1D1B" stroke-width="1.03032" stroke-miterlimit="10" stroke-linecap="round" stroke-linejoin="round"/>
<path d="M627.031 550.38L611.572 547.488" stroke="#1D1D1B" stroke-width="1.03032" stroke-miterlimit="10" stroke-linecap="round" stroke-linejoin="round"/>
<path d="M624.874 553.32L611.939 551.059" stroke="#1D1D1B" stroke-width="1.03032" stroke-miterlimit="10" stroke-linecap="round" stroke-linejoin="round"/>
<path d="M627.029 550.377C629.027 542.753 626.609 537.758 613.727 535.445C600.844 534.078 583.861 531.08 570.769 528.557L565.773 550.483L616.145 555.846C616.145 555.793 625.031 558.002 627.029 550.377Z" fill="#FFD4D2"/>
<path d="M600.318 596.07L611.939 571.463L616.513 572.567" stroke="#2D2D2D" stroke-width="1.03032" stroke-miterlimit="10"/>
<path d="M692.912 596.07L700.852 605.64" stroke="#1D1D1B" stroke-width="1.03032" stroke-miterlimit="10" stroke-linecap="round" stroke-linejoin="round"/>
<path d="M699.326 608.846C699.432 608.688 689.389 598.277 689.389 598.277" stroke="#1D1D1B" stroke-width="1.03032" stroke-miterlimit="10" stroke-linecap="round" stroke-linejoin="round"/>
<path d="M697.33 611.003L686.551 601.275" stroke="#1D1D1B" stroke-width="1.03032" stroke-miterlimit="10" stroke-linecap="round" stroke-linejoin="round"/>
<path d="M693.806 613.004C693.595 613.109 684.131 604.223 684.131 604.223" stroke="#1D1D1B" stroke-width="1.03032" stroke-miterlimit="10" stroke-linecap="round" stroke-linejoin="round"/>
<path d="M627.659 543.808L614.619 540.18" stroke="#1D1D1B" stroke-width="1.03032" stroke-miterlimit="10" stroke-linecap="round" stroke-linejoin="round"/>
<path d="M627.871 547.07L611.045 543.6" stroke="#1D1D1B" stroke-width="1.03032" stroke-miterlimit="10" stroke-linecap="round" stroke-linejoin="round"/>
<path d="M627.029 550.382L611.57 547.49" stroke="#1D1D1B" stroke-width="1.03032" stroke-miterlimit="10" stroke-linecap="round" stroke-linejoin="round"/>
<path d="M624.874 553.321L611.939 551.061" stroke="#1D1D1B" stroke-width="1.03032" stroke-miterlimit="10" stroke-linecap="round" stroke-linejoin="round"/>
<path d="M602.001 430.285C602.159 429.917 602.264 429.601 602.317 429.233C601.896 429.023 601.37 428.865 600.844 428.865C600.318 428.865 599.74 429.023 599.162 429.338C598.846 430.232 599.004 431.074 599.582 431.442C599.845 431.494 600.108 431.547 600.371 431.652C601.002 431.547 601.633 431.021 602.001 430.285Z" fill="#2D2D2D"/>
<path d="M374.17 744.875L364.18 777.159L420.178 776.844L420.072 776.213C419.494 773.531 417.391 771.428 414.657 770.955L403.51 769.009C400.46 768.483 398.147 766.012 397.726 762.963L395.57 746.4L374.17 744.875Z" fill="#FFC627"/>
<path d="M346.934 744.456L443.576 543.915L508.618 543.652L405.455 761.492L346.934 744.456Z" fill="black"/>
<path d="M363.811 777.999L365.125 775.055L419.914 775.318L420.439 777.579L363.811 777.999Z" fill="black"/>
<path d="M385.264 764.172C385.264 767.905 382.635 770.902 379.375 770.902C376.115 770.902 373.486 767.905 373.486 764.172C373.486 760.438 376.115 757.441 379.375 757.441C382.635 757.441 385.264 760.491 385.264 764.172Z" stroke="black" stroke-width="1.03032" stroke-miterlimit="10"/>
<path d="M400.933 765.223L397.305 769.377" stroke="black" stroke-width="1.03032" stroke-miterlimit="10" stroke-linecap="round" stroke-linejoin="round"/>
<path d="M403.036 766.537L399.408 770.691" stroke="black" stroke-width="1.03032" stroke-miterlimit="10" stroke-linecap="round" stroke-linejoin="round"/>
<path d="M405.456 767.434L402.459 771.535" stroke="black" stroke-width="1.03032" stroke-miterlimit="10" stroke-linecap="round" stroke-linejoin="round"/>
<path d="M555.572 752.288L561.093 776.948L609.888 776.685V775.055C609.467 772.373 607.469 770.27 604.84 769.639L588.75 765.906C585.543 765.17 583.019 762.698 582.178 759.491L579.181 747.766L555.572 752.288Z" fill="#FFC627"/>
<path d="M440.842 556.638L543.268 757.81L601.317 757.442L496.997 550.381L440.842 556.638Z" fill="#292A2D"/>
<path d="M575.973 765.172C576.446 768.642 574.343 771.797 571.241 772.218C568.139 772.638 565.247 770.22 564.773 766.75C564.3 763.279 566.403 760.124 569.506 759.704C572.555 759.283 575.447 761.702 575.973 765.172Z" stroke="black" stroke-width="1.03032" stroke-miterlimit="10"/>
<path d="M560.936 775.738L561.356 777.894H609.94L609.888 775.055L560.936 775.738Z" fill="black"/>
<path d="M586.595 763.223L582.967 767.377" stroke="black" stroke-width="1.03032" stroke-miterlimit="10" stroke-linecap="round" stroke-linejoin="round"/>
<path d="M588.751 764.596L585.123 768.749" stroke="black" stroke-width="1.03032" stroke-miterlimit="10" stroke-linecap="round" stroke-linejoin="round"/>
<path d="M591.169 765.434L588.119 769.535" stroke="black" stroke-width="1.03032" stroke-miterlimit="10" stroke-linecap="round" stroke-linejoin="round"/>
<path d="M505.883 461.785V462.732C505.883 465.308 507.723 467.464 510.247 467.937L520.342 469.83C521.972 470.145 523.129 471.618 523.076 473.248L489.741 473.616L489.215 461.995L505.883 461.785Z" fill="black"/>
<path d="M451.779 462.149L458.615 476.714C460.718 482.708 466.397 486.651 472.759 486.546L536.223 485.389C546.424 485.179 553.68 475.452 550.998 465.619L549.105 460.361L451.779 462.149Z" fill="#62D7E0"/>
<path d="M550.84 466.57L535.697 412.57C535.697 412.57 533.068 401.949 526.705 400.634C518.976 399.004 515.401 402.107 517.609 415.041C521.921 432.603 525.864 458.63 527.652 471.039C528.283 475.351 531.227 478.979 535.329 480.504C544.215 483.659 553.048 475.719 550.84 466.57Z" fill="#FDAB9A"/>
<path d="M522.709 400.529L523.55 406.523C523.55 406.523 524.181 408.469 525.285 407.996C526.39 407.575 526.127 404 526.127 404C526.127 404 526.284 408.784 528.072 408.784C529.86 408.784 529.229 403.684 529.229 403.684C529.229 403.684 530.281 408.627 531.963 408.627C533.646 408.574 532.279 404.788 532.279 404.788" stroke="#1D1D1B" stroke-width="1.03032" stroke-miterlimit="10" stroke-linecap="round" stroke-linejoin="round"/>
<path d="M422.965 572.939L516.452 563.632L510.038 479.136C509.459 469.934 502.466 462.1 493.265 461.364L455.091 458.787C444.943 458.997 436.425 466.569 435.111 476.664L422.965 572.939Z" fill="#62D7E0"/>
<path d="M461.717 459.26L485.956 566.681L506.778 564.578L493.265 461.363L461.717 459.26Z" fill="white"/>
<path d="M461.717 459.258L462.295 461.782C483.117 481.079 487.639 468.407 488.585 461.045L461.717 459.258Z" fill="#FDAB9A"/>
<path d="M459.822 601.439L445.889 582.668C435.267 566.21 431.166 546.335 434.426 527.038L441.787 484.764L466.447 487.813L459.875 514.787C454.827 535.451 458.403 557.219 469.707 575.202L479.54 590.765C480.749 592.658 481.38 594.919 481.328 597.18L481.275 598.6C481.117 606.171 475.071 610.483 467.815 608.38C467.815 608.38 466.921 608.117 464.975 606.697C463.03 605.225 461.295 603.437 459.822 601.439Z" fill="#FDAB9A"/>
<path d="M433.586 532.134L457.72 536.814L466.764 486.758C468.079 479.133 462.4 472.035 454.671 471.772C448.151 471.509 442.525 476.189 441.526 482.604L433.586 532.134Z" fill="#62D7E0"/>
<path d="M454.775 464.99C447.729 464.727 441.577 469.775 440.525 476.768" stroke="black" stroke-width="1.03032" stroke-miterlimit="10"/>
<path d="M455.932 433.598C455.932 433.598 451.936 443.22 463.399 443.326C474.861 443.431 458.719 429.129 458.719 429.129L455.932 433.598Z" fill="#1D1D1B"/>
<path d="M485.166 462.363C485.166 462.363 479.33 434.338 479.33 433.865L463.293 432.287L464.502 461.732L485.166 462.363Z" fill="#FDAB9A"/>
<path d="M482.487 446.382L484.117 453.796L470.604 442.123L482.487 446.382Z" fill="#FDAB9A"/>
<path d="M467.184 433.188C467.184 433.188 467.552 438.603 463.346 439.445L463.556 436.079L467.184 433.188Z" fill="#FDAB9A"/>
<path d="M462.768 410.259C462.768 410.259 472.863 404.002 474.44 410.89C474.44 410.89 484.22 406.316 485.009 415.728C485.535 422.563 473.862 421.406 473.862 421.406L462.768 410.259Z" fill="#181B21"/>
<path d="M469.761 413.624C470.392 413.624 471.023 413.518 471.602 413.466C473.6 413.203 475.755 411.257 479.068 416.2C483.222 422.352 494.421 431.553 494.421 431.553L489.374 431.448C489.374 431.448 498.891 447.801 483.905 447.433C462.873 447.117 459.561 427.82 459.561 427.82C459.561 427.82 448.151 414.465 469.761 413.624Z" fill="#FDAB9A"/>
<path d="M462.82 425.239C463.346 425.081 469.445 430.918 473.915 426.448C475.597 424.818 476.281 423.188 476.228 420.822C476.176 418.772 474.546 416.458 472.811 415.407C474.388 416.143 475.965 416.826 477.648 417.247C479.331 417.615 481.171 417.615 482.748 416.931L477.701 409.518L464.871 416.09L462.82 425.239Z" fill="#1D1D1B"/>
<path d="M458.456 435.175C453.461 432.967 450.674 431.127 449.36 425.238C449.36 425.238 446.1 409.779 464.608 410.358C469.183 410.515 476.281 412.145 480.382 414.249C480.803 414.459 481.224 414.669 481.381 415.09C481.486 415.3 481.486 415.563 481.434 415.773C481.276 416.141 480.961 416.194 480.698 416.247C478.121 416.562 475.492 416.299 473.021 415.51C473.862 416.772 474.704 418.139 475.124 419.612C476.071 422.661 474.178 425.921 471.076 426.395C470.077 426.552 468.92 426.395 467.605 425.764C467.605 425.764 470.077 429.602 466.186 431.81C462.295 433.966 458.456 435.175 458.456 435.175Z" fill="#181B21"/>
<path d="M477.016 431.286C477.753 429.814 480.802 424.609 485.114 429.236C485.219 429.341 485.219 429.499 485.061 429.604C484.483 430.024 481.854 430.077 477.227 431.602C477.069 431.707 476.911 431.497 477.016 431.286Z" fill="white"/>
<path d="M480.593 415.357C478.122 416.776 474.967 416.04 472.285 415.094C472.969 416.513 473.547 417.986 473.968 419.458C474.231 420.404 474.441 421.351 474.441 422.35" stroke="white" stroke-width="1.03032" stroke-miterlimit="10" stroke-linecap="round" stroke-linejoin="round"/>
<path d="M467.185 427.924C467.08 430.868 464.872 430.974 463.715 431.236" stroke="white" stroke-width="1.03032" stroke-miterlimit="10" stroke-linecap="round" stroke-linejoin="round"/>
<path d="M466.081 437.123C466.081 437.123 465.608 437.544 464.872 438.069C461.507 440.278 456.88 438.332 456.249 434.336C455.828 431.549 457.353 429.394 460.245 428.92C464.031 428.289 466.186 431.76 466.186 431.76" fill="#FDAB9A"/>
<path d="M460.192 431.078L464.504 434.601C464.504 434.601 461.559 432.498 459.141 435.653" stroke="black" stroke-width="1.03032" stroke-miterlimit="10" stroke-linecap="round" stroke-linejoin="round"/>
<path d="M478.28 433.395C478.438 434.026 479.857 434.236 481.487 433.815C483.065 433.395 484.222 432.553 484.064 431.87C483.906 431.239 482.486 431.029 480.856 431.449C479.279 431.87 478.122 432.711 478.28 433.395Z" fill="#FDAB9A"/>
<path d="M475.912 429.026C475.912 429.026 477.121 423.82 482.011 425.503" stroke="#1D1D1B" stroke-width="1.03032" stroke-miterlimit="10" stroke-linecap="round" stroke-linejoin="round"/>
<path d="M490.162 432.914C490.162 432.914 490.477 440.538 484.115 434.965L490.162 432.914Z" fill="#1D1D1B"/>
<path d="M522.5 406.574C522.5 406.574 523.499 391.957 520.081 392.325C516.664 392.693 517.242 409.361 517.242 409.624" fill="#FDAB9A"/>
<path d="M530.28 420.719C528.125 413.725 523.024 415.093 523.024 415.093C523.024 415.093 524.707 406.312 522.656 404.787C520.606 403.262 519.291 415.408 519.291 415.408" stroke="#1D1E1B" stroke-width="1.03032" stroke-miterlimit="10" stroke-linecap="round" stroke-linejoin="round"/>
<path d="M474.861 592.393L481.276 601.226" stroke="black" stroke-width="1.03032" stroke-miterlimit="10" stroke-linecap="round" stroke-linejoin="round"/>
<path d="M471.76 594.178L479.805 605.167" stroke="black" stroke-width="1.03032" stroke-miterlimit="10" stroke-linecap="round" stroke-linejoin="round"/>
<path d="M468.604 595.707L477.752 607.958" stroke="black" stroke-width="1.03032" stroke-miterlimit="10" stroke-linecap="round" stroke-linejoin="round"/>
<path d="M474.545 608.955L466.027 599.438" stroke="black" stroke-width="1.03032" stroke-miterlimit="10" stroke-linecap="round" stroke-linejoin="round"/>
<path d="M457.773 536.814L462.926 497.484" stroke="black" stroke-width="1.03032" stroke-miterlimit="10"/>
<path d="M484.379 428.555C483.485 427.819 482.644 427.451 481.908 427.398C481.487 427.872 481.435 428.713 481.803 429.502C481.961 429.817 482.118 430.08 482.381 430.29C483.328 430.08 484.064 429.975 484.537 429.87C484.59 429.502 484.537 429.028 484.379 428.555Z" fill="#2D2D2D"/>
<path d="M625.871 724.891L603.209 734.513L621.086 773.79L647.376 773.475L646.009 770.583L634.126 764.589C631.918 763.116 630.761 760.487 631.129 757.858L633.443 741.085L625.871 724.891Z" fill="#EDA900"/>
<path d="M607.889 713.111L639.489 760.275C639.489 760.275 760.371 673.255 768.889 567.096L768.679 535.811L722.619 537.335C722.671 537.335 730.295 625.355 607.889 713.111Z" fill="black"/>
<path d="M603.209 734.512L601.158 735.406L618.194 774.473L647.744 775.314L647.376 773.474L620.56 772.264L603.209 734.512Z" fill="black"/>
<path d="M624.346 755.965C624.872 755.807 633.021 758.962 633.021 758.962" stroke="#292A2D" stroke-width="1.03032" stroke-miterlimit="10"/>
<path d="M634.074 761.803L624.557 759.857" stroke="#292A2D" stroke-width="1.03032" stroke-miterlimit="10"/>
<path d="M860.484 526.87C862.009 526.029 863.533 525.24 865.163 524.609C870.316 522.611 877.152 521.034 881.411 524.662C890.192 532.181 874.786 543.117 868.371 547.114C859.012 554.159 820.102 579.03 783.559 537.281C746.332 494.744 766.102 454.572 766.102 454.572L777.775 454.52C787.397 454.467 795.337 462.039 795.705 471.661C796.599 494.901 801.068 533.443 828.305 535.178C842.501 536.072 851.493 532.128 858.433 528.079L860.484 526.87Z" fill="#FDAB9A"/>
<path d="M730.138 473.767L729.98 475.081L765.104 475.029L765.051 473.451L730.138 473.767Z" fill="black"/>
<path d="M745.912 468.984L750.96 466.092" stroke="black" stroke-width="1.03032" stroke-miterlimit="10"/>
<path d="M747.699 470.246L752.537 467.039" stroke="black" stroke-width="1.03032" stroke-miterlimit="10"/>
<path d="M712.312 537.705L789.343 538.283L791.446 473.084C791.761 462.936 783.559 454.576 773.411 454.681L725.352 455.206L712.312 537.705Z" fill="#FFC627"/>
<path d="M777.88 454.523H777.775L766.102 454.576C766.102 454.576 746.332 494.747 783.559 537.285C799.07 555.004 815.002 560.735 828.936 560.893V535.181C828.725 535.181 828.462 535.181 828.252 535.129C801.016 533.394 796.546 494.852 795.652 471.612C795.337 462.095 787.45 454.523 777.88 454.523Z" fill="#FFC627"/>
<path d="M726.509 455.102C726.509 455.102 638.332 482.706 673.614 590.39L699.378 587.183C699.378 587.183 672.562 500.951 731.978 480.235L726.509 455.102Z" fill="#FFC627"/>
<path d="M767.733 461.356L769.573 429.65L754.746 428.072C753.484 435.854 744.966 462.512 745.755 460.987L767.733 461.356Z" fill="#FDAB9A"/>
<path d="M750.17 445.68L751.8 440.001L762.474 434.953L750.17 445.68Z" fill="#FDAB9A"/>
<path d="M769.574 429.762C768.627 429.762 766.997 429.762 764.105 429.814C764.105 429.814 764.999 431.549 766.524 432.391C767.418 432.864 768.417 433.074 769.363 433.127L769.574 429.762Z" fill="#FDAB9A"/>
<path d="M775.409 419.715C775.409 419.715 769.678 436.856 749.119 443.323C734.712 446.057 740.654 430.02 740.654 430.02L735.816 430.914C735.816 430.914 742.967 421.187 745.964 414.562C745.964 414.509 746.017 414.457 746.07 414.404C748.383 409.514 753.168 408.673 755.324 408.568C755.429 408.568 755.587 408.568 755.692 408.568C756.323 408.568 756.901 408.515 757.532 408.41C778.512 405.728 775.409 419.715 775.409 419.715Z" fill="#FDAB9A"/>
<path d="M753.115 427.549C751.958 426.392 747.541 422.501 744.912 428.127C744.86 428.233 744.912 428.39 745.07 428.443C745.754 428.706 747.909 429.179 753.01 427.97C753.22 427.917 753.273 427.654 753.115 427.549Z" fill="white"/>
<path d="M739.443 433.91C739.443 433.91 742.44 436.224 747.225 432.648" stroke="black" stroke-width="1.03032" stroke-miterlimit="10" stroke-linecap="round" stroke-linejoin="round"/>
<path d="M743.126 425.763C742.495 429.496 744.966 433.072 748.699 433.703C752.432 434.334 756.008 431.862 756.639 428.129C757.27 424.396 754.798 420.821 751.065 420.19C747.385 419.506 743.809 421.977 743.126 425.763Z" stroke="black" stroke-width="1.03032" stroke-miterlimit="10" stroke-linecap="round" stroke-linejoin="round"/>
<path d="M756.639 425.5L763.264 424.291" stroke="black" stroke-width="1.03032" stroke-miterlimit="10" stroke-linecap="round" stroke-linejoin="round"/>
<path d="M743.861 423.551C743.861 423.551 744.019 420.397 741.021 422.552" stroke="black" stroke-width="1.03032" stroke-miterlimit="10" stroke-linecap="round" stroke-linejoin="round"/>
<path d="M752.065 429.857C752.117 430.488 750.855 431.119 749.225 431.225C747.595 431.33 746.281 430.909 746.228 430.225C746.176 429.595 747.437 428.964 749.067 428.858C750.697 428.753 752.012 429.226 752.065 429.857Z" fill="#FDAB9A"/>
<path d="M753.589 425.55C753.589 425.55 751.171 421.133 746.754 423.552" stroke="#1D1D1B" stroke-width="1.03032" stroke-miterlimit="10" stroke-linecap="round" stroke-linejoin="round"/>
<path d="M761.529 410.516L763.264 424.239C760.53 424.449 757.112 423.713 755.482 422.556C753.589 421.242 752.222 419.296 751.907 417.036C751.644 415.037 752.275 412.356 753.8 411.094C752.38 412.04 750.96 412.987 749.383 413.618C748.331 414.038 747.174 414.301 746.07 414.354C748.384 409.464 753.169 408.623 755.324 408.518L761.529 410.516Z" fill="#1D1D1B"/>
<path d="M763.998 424.026C762.105 424.499 760.107 423.973 758.372 423.132C756.427 422.238 754.534 420.871 753.693 418.873C752.588 416.244 753.482 413.247 754.692 410.723C752.431 411.932 749.959 412.616 747.383 412.668C747.225 412.668 747.015 412.668 746.857 412.616C746.489 412.458 746.384 411.932 746.542 411.564C746.699 411.196 747.015 410.933 747.33 410.67C750.958 408.041 755.533 406.989 760.002 406.884C763.104 406.832 767.626 407.147 770.466 408.514C773.252 409.829 775.671 412.142 776.67 415.087C777.669 418.031 776.355 424.551 771.885 427.443" fill="#181B21"/>
<path d="M747.279 411.775C749.908 412.774 752.853 411.564 755.271 410.197C754.851 411.67 754.535 413.194 754.325 414.719C754.22 415.666 754.167 416.612 754.325 417.558C754.798 420.188 757.059 422.186 759.583 423.132C762.107 424.078 764.841 424.078 767.47 424.078" stroke="white" stroke-width="1.03032" stroke-miterlimit="10" stroke-linecap="round" stroke-linejoin="round"/>
<path d="M759.477 415.455C759.425 417.926 760.161 420.398 761.633 422.396C761.949 422.869 762.317 423.29 762.79 423.605C763.736 424.289 764.998 424.394 766.155 424.446" stroke="white" stroke-width="1.03032" stroke-miterlimit="10" stroke-linecap="round" stroke-linejoin="round"/>
<path d="M763.788 430.124C763.788 430.124 764.314 430.492 765.103 430.86C768.731 432.49 772.884 429.861 772.832 425.865C772.779 423.131 770.992 421.238 768.1 421.238C764.314 421.238 762.789 424.971 762.789 424.971" fill="#FDAB9A"/>
<path d="M768.363 423.66L764.787 427.761C764.787 427.761 767.258 425.238 770.15 427.972" stroke="black" stroke-width="1.03032" stroke-miterlimit="10" stroke-linecap="round" stroke-linejoin="round"/>
<path d="M741.021 454.995C741.021 454.995 742.914 470.506 758.057 470.822C773.201 471.137 774.042 454.574 774.042 454.574L741.021 454.995Z" fill="#FDAB9A"/>
<path d="M784.453 537.809L784.611 482.652" stroke="#1D1E1B" stroke-width="1.03032" stroke-miterlimit="10"/>
<path d="M867.162 528.241L877.836 522.562" stroke="#1D1D1B" stroke-width="1.03032" stroke-miterlimit="10" stroke-linecap="round" stroke-linejoin="round"/>
<path d="M880.675 524.82L867.635 531.866" stroke="#1D1D1B" stroke-width="1.03032" stroke-miterlimit="10" stroke-linecap="round" stroke-linejoin="round"/>
<path d="M870.211 534.234L883.356 526.926" stroke="#1D1D1B" stroke-width="1.03032" stroke-miterlimit="10" stroke-linecap="round" stroke-linejoin="round"/>
<path d="M883.776 530.5L873.996 536.652" stroke="#1D1D1B" stroke-width="1.03032" stroke-miterlimit="10" stroke-linecap="round" stroke-linejoin="round"/>
<path d="M607.994 745.183C607.994 745.183 619.825 741.555 616.407 729.514" stroke="black" stroke-width="1.03032" stroke-miterlimit="10"/>
<path d="M842.921 755.49V757.12C842.921 761.432 846.024 765.112 850.23 765.901L867.266 769.109C870 769.634 871.998 772.106 871.841 774.892L815.632 775.471L814.791 755.911L842.921 755.49Z" fill="#EDA900"/>
<path d="M722.671 537.336C722.671 537.336 716.203 566.412 743.44 605.953C770.676 645.493 803.013 693.657 797.282 759.382L851.755 759.066C851.755 759.066 852.807 675.043 823.993 629.404C795.231 583.764 779.247 551.269 777.617 536.547L722.671 537.336Z" fill="black"/>
<path d="M722.671 537.34C722.671 537.34 716.203 566.417 743.44 605.957C770.676 645.497 803.013 693.661 797.282 759.386" stroke="#FFC627" stroke-width="1.03032" stroke-miterlimit="10"/>
<path d="M815.107 762.801C815.107 762.801 830.881 763.484 830.461 775.683" stroke="black" stroke-width="1.03032" stroke-miterlimit="10"/>
<path d="M815.686 775.473V777.892L871.894 777.366L871.841 774.895L815.686 775.473Z" fill="black"/>
<path d="M850.861 762.801L845.498 767.638" stroke="black" stroke-width="1.03032" stroke-miterlimit="10"/>
<path d="M853.332 764.271L848.758 769.74" stroke="black" stroke-width="1.03032" stroke-miterlimit="10"/>
<path d="M698.222 586.605C698.222 586.605 704.584 605.85 695.751 612.212C682.868 621.571 673.982 589.182 673.982 589.182L698.222 586.605Z" fill="#FDAB9A"/>
<path d="M695.592 596.014L698.904 608.896" stroke="#1D1D1B" stroke-width="1.03032" stroke-miterlimit="10" stroke-linecap="round" stroke-linejoin="round"/>
<path d="M695.749 611.368L691.543 595.541" stroke="#1D1D1B" stroke-width="1.03032" stroke-miterlimit="10" stroke-linecap="round" stroke-linejoin="round"/>
<path d="M688.389 597.646L692.805 613.683" stroke="#1D1D1B" stroke-width="1.03032" stroke-miterlimit="10" stroke-linecap="round" stroke-linejoin="round"/>
<path d="M688.861 613.263L684.76 601.117" stroke="#1D1D1B" stroke-width="1.03032" stroke-miterlimit="10" stroke-linecap="round" stroke-linejoin="round"/>
<path d="M748.277 428.705C748.382 428.442 748.382 428.127 748.382 427.759C748.33 426.707 747.646 425.866 746.91 425.918C746.174 425.971 745.648 426.865 745.701 427.916C745.701 428.127 745.753 428.337 745.806 428.547C746.332 428.705 747.173 428.758 748.277 428.705Z" fill="#2D2D2D"/>
</svg>