<svg xmlns:xlink="http://www.w3.org/1999/xlink" xmlns="http://www.w3.org/2000/svg" width="160" height="160" viewBox="0 0 160 160" fill="none"><div xmlns="" id="in-page-channel-node-id" data-channel-name="in_page_channel_TSWL_h"/>
<g filter="url(#filter0_d_10920_403557)">
<circle cx="80" cy="76" r="72" fill="url(#paint0_radial_10920_403557)" stroke="#E6EBF0" stroke-width="4"/>
<path fill-rule="evenodd" clip-rule="evenodd" d="M118.922 63.2539C123.711 63.2539 127.594 67.1364 127.594 71.9258V102.277C127.594 107.067 123.711 110.949 118.922 110.949H114.549C114.169 110.949 113.816 111.149 113.62 111.475L111.984 114.201L110.61 116.491L109.012 119.156C108.591 119.858 107.574 119.858 107.153 119.156L105.554 116.491L104.18 114.201L102.544 111.475C102.348 111.149 101.996 110.949 101.615 110.949H71.2266C66.4372 110.949 62.5547 107.067 62.5547 102.277V81.6816C62.5547 81.083 63.04 80.5977 63.6387 80.5977H92.9062C95.3009 80.5977 97.2422 78.6564 97.2422 76.2617V64.3379C97.2422 63.7392 97.7275 63.2539 98.3262 63.2539H118.922Z" fill="white"/>
<path fill-rule="evenodd" clip-rule="evenodd" d="M118.922 67.5898C121.317 67.5898 123.258 69.5311 123.258 71.9258V102.277C123.258 104.672 121.317 106.613 118.922 106.613H114.549C112.645 106.613 110.881 107.612 109.902 109.245L108.082 112.278L106.262 109.245C105.283 107.612 103.519 106.613 101.615 106.613H71.2266C68.8319 106.613 66.8906 104.672 66.8906 102.277V84.9336H92.9062C97.6956 84.9336 101.578 81.0511 101.578 76.2617V67.5898H118.922ZM107.153 119.156C107.574 119.858 108.591 119.858 109.012 119.156L113.62 111.475C113.816 111.149 114.169 110.949 114.549 110.949H118.922C123.711 110.949 127.594 107.067 127.594 102.277V71.9258C127.594 67.1364 123.711 63.2539 118.922 63.2539H98.3262C97.7275 63.2539 97.2422 63.7392 97.2422 64.3379V76.2617C97.2422 78.6564 95.3009 80.5977 92.9062 80.5977H63.6387C63.04 80.5977 62.5547 81.083 62.5547 81.6816V102.277C62.5547 107.067 66.4372 110.949 71.2266 110.949H101.615C101.996 110.949 102.348 111.149 102.544 111.475L107.153 119.156Z" fill="#4F4F4F"/>
<path fill-rule="evenodd" clip-rule="evenodd" d="M114.586 95.7734C114.586 96.9708 113.615 97.9414 112.418 97.9414L77.7305 97.9414C76.5331 97.9414 75.5625 96.9708 75.5625 95.7734C75.5625 94.5761 76.5331 93.6055 77.7305 93.6055L112.418 93.6055C113.615 93.6055 114.586 94.5761 114.586 95.7734Z" fill="#65DCE2"/>
<path fill-rule="evenodd" clip-rule="evenodd" d="M114.586 82.7656C114.586 83.963 113.615 84.9336 112.418 84.9336L103.746 84.9336C102.549 84.9336 101.578 83.963 101.578 82.7656C101.578 81.5683 102.549 80.5977 103.746 80.5977L112.418 80.5977C113.615 80.5977 114.586 81.5683 114.586 82.7656Z" fill="#65DCE2"/>
<path d="M38.8887 81.8726V44.2853L44.7617 39.5869H95.2696L98.7934 44.2853V77.1742L95.2696 81.8726H61.2061L55.3331 90.0949L49.4601 81.8726H38.8887Z" fill="white"/>
<path fill-rule="evenodd" clip-rule="evenodd" d="M48.2852 66.5088C48.2852 65.3115 49.2558 64.3408 50.4531 64.3408L85.1406 64.3408C86.338 64.3408 87.3086 65.3115 87.3086 66.5088C87.3086 67.7061 86.338 68.6768 85.1406 68.6768L50.4531 68.6768C49.2558 68.6768 48.2852 67.7061 48.2852 66.5088Z" fill="#00B7BD"/>
<path fill-rule="evenodd" clip-rule="evenodd" d="M48.2852 56.0318C48.2852 54.7344 49.3369 53.6826 50.6344 53.6826H74.1264C75.4239 53.6826 76.4756 54.7344 76.4756 56.0318C76.4756 57.3293 75.4239 58.381 74.1264 58.381H50.6344C49.3369 58.381 48.2852 57.3293 48.2852 56.0318Z" fill="#00B7BD"/>
<path fill-rule="evenodd" clip-rule="evenodd" d="M56.0508 86.2619L57.8705 83.229C58.85 81.5965 60.6142 80.5977 62.518 80.5977H92.9062C95.3009 80.5977 97.2422 78.6564 97.2422 76.2617V45.9102C97.2422 43.5155 95.3009 41.5742 92.9062 41.5742H45.2109C42.8163 41.5742 40.875 43.5155 40.875 45.9102V76.2617C40.875 78.6564 42.8163 80.5977 45.2109 80.5977H49.5835C51.4873 80.5977 53.2516 81.5965 54.2311 83.229L56.0508 86.2619ZM50.513 85.4599C50.3171 85.1334 49.9643 84.9336 49.5835 84.9336H45.2109C40.4216 84.9336 36.5391 81.0511 36.5391 76.2617V45.9102C36.5391 41.1208 40.4216 37.2383 45.2109 37.2383H92.9062C97.6956 37.2383 101.578 41.1208 101.578 45.9102V76.2617C101.578 81.0511 97.6956 84.9336 92.9062 84.9336H62.518C62.1373 84.9336 61.7844 85.1334 61.5885 85.4599L56.9803 93.1403C56.5593 93.842 55.5423 93.842 55.1213 93.1403L50.513 85.4599Z" fill="#4F4F4F"/>
</g>
<defs>
<filter id="filter0_d_10920_403557" x="0.109091" y="0.109091" width="159.782" height="159.782" filterUnits="userSpaceOnUse" color-interpolation-filters="sRGB">
<feFlood flood-opacity="0" result="BackgroundImageFix"/>
<feColorMatrix in="SourceAlpha" type="matrix" values="0 0 0 0 0 0 0 0 0 0 0 0 0 0 0 0 0 0 127 0" result="hardAlpha"/>
<feOffset dy="4"/>
<feGaussianBlur stdDeviation="2.94545"/>
<feColorMatrix type="matrix" values="0 0 0 0 0.156863 0 0 0 0 0.160784 0 0 0 0 0.239216 0 0 0 0.2 0"/>
<feBlend mode="normal" in2="BackgroundImageFix" result="effect1_dropShadow_10920_403557"/>
<feBlend mode="normal" in="SourceGraphic" in2="effect1_dropShadow_10920_403557" result="shape"/>
</filter>
<radialGradient id="paint0_radial_10920_403557" cx="0" cy="0" r="1" gradientUnits="userSpaceOnUse" gradientTransform="translate(80 76) rotate(90) scale(74)">
<stop offset="0.0260417" stop-color="#FFDE84"/>
<stop offset="1" stop-color="#FFC627"/>
</radialGradient>
</defs>
</svg>