<svg width="20" height="20" viewBox="0 0 20 20" fill="none" xmlns="http://www.w3.org/2000/svg">
<g clip-path="url(#clip0_1083_3010)">
<path d="M9.99999 0.00012207C4.49999 0.00012207 0 4.50815 0 10.0604C0 15.0804 3.65999 19.2471 8.43999 20.0001V12.972H5.89999V10.0604H8.43999V7.84149C8.43999 5.32141 9.92999 3.93587 12.22 3.93587C13.31 3.93587 14.45 4.12663 14.45 4.12663V6.60655H13.19C11.95 6.60655 11.56 7.37964 11.56 8.17281V10.0604H14.34L13.89 12.972H11.56V20.0001C13.9164 19.6265 16.0622 18.4193 17.6099 16.5966C19.1576 14.7738 20.0053 12.4556 20 10.0604C20 4.50815 15.5 0.00012207 9.99999 0.00012207Z" fill="#00B7BD"/>
</g>
<defs>
<clipPath id="clip0_1083_3010">
<rect width="20" height="20" fill="white"/>
</clipPath>
</defs>
</svg>
