<svg width="20" height="20" viewBox="0 0 20 20" fill="none" xmlns="http://www.w3.org/2000/svg">
<g clip-path="url(#clip0_1083_46)">
<path d="M5.8 0.00012207H14.2C17.4 0.00012207 20 2.60012 20 5.80012V14.2001C20 15.7384 19.3889 17.2136 18.3012 18.3013C17.2135 19.3891 15.7383 20.0001 14.2 20.0001H5.8C2.6 20.0001 0 17.4001 0 14.2001V5.80012C0 4.26187 0.61107 2.78661 1.69878 1.6989C2.78649 0.611192 4.26174 0.00012207 5.8 0.00012207ZM5.6 2.00012C4.64522 2.00012 3.72955 2.37941 3.05442 3.05454C2.37928 3.72967 2 4.64534 2 5.60012V14.4001C2 16.3901 3.61 18.0001 5.6 18.0001H14.4C15.3548 18.0001 16.2705 17.6208 16.9456 16.9457C17.6207 16.2706 18 15.3549 18 14.4001V5.60012C18 3.61012 16.39 2.00012 14.4 2.00012H5.6ZM15.25 3.50012C15.5815 3.50012 15.8995 3.63182 16.1339 3.86624C16.3683 4.10066 16.5 4.4186 16.5 4.75012C16.5 5.08164 16.3683 5.39959 16.1339 5.63401C15.8995 5.86843 15.5815 6.00012 15.25 6.00012C14.9185 6.00012 14.6005 5.86843 14.3661 5.63401C14.1317 5.39959 14 5.08164 14 4.75012C14 4.4186 14.1317 4.10066 14.3661 3.86624C14.6005 3.63182 14.9185 3.50012 15.25 3.50012ZM10 5.00012C11.3261 5.00012 12.5979 5.52691 13.5355 6.46459C14.4732 7.40227 15 8.67404 15 10.0001C15 11.3262 14.4732 12.598 13.5355 13.5357C12.5979 14.4733 11.3261 15.0001 10 15.0001C8.67392 15.0001 7.40215 14.4733 6.46447 13.5357C5.52678 12.598 5 11.3262 5 10.0001C5 8.67404 5.52678 7.40227 6.46447 6.46459C7.40215 5.52691 8.67392 5.00012 10 5.00012ZM10 7.00012C9.20435 7.00012 8.44129 7.31619 7.87868 7.8788C7.31607 8.44141 7 9.20447 7 10.0001C7 10.7958 7.31607 11.5588 7.87868 12.1214C8.44129 12.6841 9.20435 13.0001 10 13.0001C10.7956 13.0001 11.5587 12.6841 12.1213 12.1214C12.6839 11.5588 13 10.7958 13 10.0001C13 9.20447 12.6839 8.44141 12.1213 7.8788C11.5587 7.31619 10.7956 7.00012 10 7.00012Z" fill="#00B7BD"/>
</g>
<defs>
<clipPath id="clip0_1083_46">
<rect width="20" height="20" fill="white"/>
</clipPath>
</defs>
</svg>
