<svg width="20" height="20" viewBox="0 0 20 20" fill="none" xmlns="http://www.w3.org/2000/svg">
<g clip-path="url(#clip0_1083_3012)">
<path d="M17.7778 0.00012207C18.3671 0.00012207 18.9324 0.234248 19.3491 0.650996C19.7659 1.06774 20 1.63297 20 2.22234V17.7779C20 18.3673 19.7659 18.9325 19.3491 19.3492C18.9324 19.766 18.3671 20.0001 17.7778 20.0001H2.22222C1.63285 20.0001 1.06762 19.766 0.650874 19.3492C0.234126 18.9325 0 18.3673 0 17.7779V2.22234C0 1.63297 0.234126 1.06774 0.650874 0.650996C1.06762 0.234248 1.63285 0.00012207 2.22222 0.00012207H17.7778ZM17.2222 17.2223V11.3335C17.2222 10.3728 16.8406 9.45146 16.1613 8.77216C15.482 8.09286 14.5607 7.71123 13.6 7.71123C12.6556 7.71123 11.5556 8.28901 11.0222 9.15568V7.92234H7.92222V17.2223H11.0222V11.7446C11.0222 10.889 11.7111 10.189 12.5667 10.189C12.9792 10.189 13.3749 10.3529 13.6666 10.6446C13.9583 10.9363 14.1222 11.332 14.1222 11.7446V17.2223H17.2222ZM4.31111 6.1779C4.80618 6.1779 5.28098 5.98123 5.63104 5.63117C5.98111 5.2811 6.17778 4.8063 6.17778 4.31123C6.17778 3.2779 5.34444 2.43346 4.31111 2.43346C3.81309 2.43346 3.33547 2.63129 2.98332 2.98344C2.63117 3.3356 2.43333 3.81322 2.43333 4.31123C2.43333 5.34457 3.27778 6.1779 4.31111 6.1779ZM5.85556 17.2223V7.92234H2.77778V17.2223H5.85556Z" fill="#00B7BD"/>
</g>
<defs>
<clipPath id="clip0_1083_3012">
<rect width="20" height="20" fill="white"/>
</clipPath>
</defs>
</svg>
