<svg width="164" height="34" viewBox="0 0 164 34" fill="none" xmlns="http://www.w3.org/2000/svg">
<g clip-path="url(#clip0_1381_10134)">
<path d="M63.2661 11.7252C63.2661 18.4605 58.0074 23.4504 50.8639 23.4504C43.7431 23.4504 38.4844 18.4605 38.4844 11.7252C38.4881 4.98991 43.7468 0 50.8677 0C58.0112 0 63.2661 4.98991 63.2661 11.7252ZM45.9332 11.7252C45.9332 14.7199 48.0254 16.829 50.8677 16.829C53.7289 16.829 55.8248 14.7199 55.8248 11.7252C55.8248 8.7305 53.7327 6.62137 50.8677 6.62137C48.0292 6.62137 45.9332 8.7305 45.9332 11.7252Z" fill="#4F4F4F"/>
<path d="M90.0552 11.7252C90.0552 18.4605 84.7965 23.4504 77.653 23.4504C70.5321 23.4504 65.2734 18.4605 65.2734 11.7252C65.2772 4.98991 70.5321 0 77.653 0C84.7965 0 90.0552 4.98991 90.0552 11.7252ZM72.7223 11.7252C72.7223 14.7199 74.8145 16.829 77.6568 16.829C80.5179 16.829 82.6139 14.7199 82.6139 11.7252C82.6139 8.7305 80.5217 6.62137 77.6568 6.62137C74.8145 6.62137 72.7223 8.7305 72.7223 11.7252Z" fill="#4F4F4F"/>
<path d="M139.061 11.7252C139.061 12.4527 139.015 13.4485 138.921 13.9262H123.45C124.054 16.3513 125.822 17.4867 128.336 17.4867C130.036 17.4867 131.872 16.807 133.316 15.5356L138.016 19.798C135.642 22.1129 132.177 23.4504 127.966 23.4504C120.8 23.4504 115.938 18.8022 115.938 11.8611C115.934 4.85395 120.702 0 127.639 0C134.409 0 139.038 4.76209 139.061 11.7252ZM123.473 9.436H131.778C131.197 7.21295 129.776 6.03345 127.661 6.03345C125.403 6.03345 124.031 7.235 123.473 9.436Z" fill="#4F4F4F"/>
<path d="M36.4828 10.1378C36.4828 5.29856 34.1305 2.30021 30.6737 0.914939L30.67 0.90759C30.4023 0.801031 30.1309 0.70917 29.8519 0.620983C29.8142 0.609959 29.7803 0.598936 29.7426 0.587912C29.1131 0.396841 28.4572 0.253537 27.7786 0.154327C27.7598 0.150653 27.7447 0.150653 27.7259 0.146978C27.3904 0.0992102 27.0511 0.0661402 26.7043 0.040419C26.6666 0.0367445 26.6289 0.0367445 26.5874 0.0330701C26.2481 0.0146978 25.9051 0 25.5583 0C25.5508 0 25.547 0 25.5394 0H25.5357C22.7311 0 20.179 0.694472 18.2414 2.12751C16.3076 0.694472 13.7517 0 10.9471 0C10.9396 0 10.9358 0 10.9282 0H10.9245C10.5852 0 10.2535 0.0146978 9.92552 0.0330701C9.86897 0.0367445 9.8162 0.040419 9.75965 0.0440934C9.42415 0.0661402 9.09619 0.102885 8.77577 0.146978C8.74184 0.150653 8.70792 0.158001 8.67399 0.161676C8.3498 0.209444 8.02938 0.264561 7.71649 0.334375C7.70519 0.33805 7.69388 0.33805 7.68257 0.341724C7.36969 0.411539 7.06057 0.492377 6.759 0.584238C6.71 0.598936 6.66476 0.613634 6.61952 0.628331C6.34811 0.712844 6.07669 0.804705 5.81659 0.911264L5.81282 0.918613C2.35227 2.30021 0 5.29856 0 10.1378V22.8367H7.28298V10.7625C7.28298 9.84754 7.44131 9.09427 7.72403 8.49166C8.31587 7.22765 9.46939 6.62871 10.932 6.62504C12.455 6.62871 13.6386 7.27542 14.2116 8.63864C14.4529 9.21553 14.5886 9.92102 14.5886 10.7661V22.8441H14.6112H21.8716H21.8942V10.7625C21.8942 9.82549 22.0601 9.05753 22.3579 8.44757C22.9572 7.21663 24.0994 6.62871 25.5432 6.62504C27.0285 6.62871 28.1933 7.23867 28.7814 8.53943C29.049 9.13469 29.1998 9.87326 29.1998 10.7661V22.8441H36.4828V10.1378Z" fill="#4F4F4F"/>
<path d="M113.934 10.1378C113.934 5.28754 111.57 2.28918 108.102 0.90759L108.099 0.900241C108.004 0.863497 107.903 0.837775 107.808 0.804705C107.567 0.716518 107.326 0.632006 107.077 0.558517C106.926 0.514423 106.772 0.477679 106.617 0.43726C106.391 0.382143 106.165 0.327026 105.935 0.282933C105.769 0.249863 105.603 0.220467 105.433 0.194746C105.196 0.158001 104.951 0.128606 104.71 0.102885C104.548 0.0845124 104.389 0.0661402 104.227 0.0514423C103.877 0.0257212 103.522 0.0110234 103.16 0.00734891C103.108 0.00734891 103.059 0 103.01 0C103.002 0 102.998 0 102.991 0H102.987C102.972 0 102.961 0 102.949 0C102.546 0 102.15 0.0183723 101.758 0.0477679C101.611 0.0587912 101.468 0.0771635 101.321 0.0918613C101.061 0.117582 100.801 0.150653 100.548 0.191072C100.39 0.216793 100.235 0.246188 100.081 0.275584C99.8355 0.323352 99.5981 0.378469 99.3606 0.43726C99.2173 0.474004 99.0741 0.507075 98.9308 0.551168C98.6669 0.628331 98.4106 0.716518 98.1543 0.812054C98.0713 0.84145 97.9809 0.863497 97.8979 0.896567L97.8942 0.903916C94.4261 2.28551 92.0625 5.28386 92.0625 10.1341V22.8331H99.3455V10.7625C99.3455 9.89898 99.485 9.17878 99.7413 8.59087C100.318 7.25704 101.494 6.62871 102.995 6.62137C104.525 6.62504 105.712 7.27909 106.282 8.65701C106.519 9.23023 106.651 9.92837 106.651 10.7588V22.8367H113.934V10.1378Z" fill="#4F4F4F"/>
<path d="M154.759 17L145.966 0H137.773L147.159 17L137.773 34H145.966L154.759 17Z" fill="#FFC627"/>
<path d="M153.333 9.79242L155.9 14.7382L163.82 0H156.024L152.172 7.55468L153.333 9.79242Z" fill="#4F4F4F"/>
</g>
<defs>
<clipPath id="clip0_1381_10134">
<rect width="163.818" height="34" fill="white"/>
</clipPath>
</defs>
</svg>
