<svg width="136" height="28" viewBox="0 0 136 28" fill="none" xmlns="http://www.w3.org/2000/svg">
<path d="M52.5267 9.65603C52.5267 15.2027 48.161 19.3121 42.2305 19.3121C36.3188 19.3121 31.9531 15.2027 31.9531 9.65603C31.9563 4.10934 36.322 0 42.2336 0C48.1641 0 52.5267 4.10934 52.5267 9.65603ZM38.1371 9.65603C38.1371 12.1222 39.874 13.8592 42.2336 13.8592C44.6089 13.8592 46.349 12.1222 46.349 9.65603C46.349 7.18983 44.6121 5.45289 42.2336 5.45289C39.8771 5.45289 38.1371 7.18983 38.1371 9.65603Z" fill="white"/>
<path d="M74.761 9.65603C74.761 15.2027 70.3953 19.3121 64.4649 19.3121C58.5532 19.3121 54.1875 15.2027 54.1875 9.65603C54.1906 4.10934 58.5532 0 64.4649 0C70.3953 0 74.761 4.10934 74.761 9.65603ZM60.3715 9.65603C60.3715 12.1222 62.1083 13.8592 64.468 13.8592C66.8433 13.8592 68.5833 12.1222 68.5833 9.65603C68.5833 7.18983 66.8465 5.45289 64.468 5.45289C62.1083 5.45289 60.3715 7.18983 60.3715 9.65603Z" fill="white"/>
<path d="M115.447 9.65603C115.447 10.2552 115.409 11.0752 115.331 11.4686H102.487C102.988 13.4658 104.456 14.4008 106.543 14.4008C107.954 14.4008 109.479 13.841 110.677 12.794L114.58 16.3042C112.608 18.2106 109.732 19.3121 106.236 19.3121C100.287 19.3121 96.25 15.4841 96.25 9.76799C96.2469 3.99737 100.206 0 105.964 0C111.585 0 115.428 3.92172 115.447 9.65603ZM102.506 7.77082H109.4C108.918 5.94008 107.739 4.96873 105.983 4.96873C104.108 4.96873 102.969 5.95823 102.506 7.77082Z" fill="white"/>
<path d="M30.2876 8.34879C30.2876 4.36352 28.3348 1.89429 25.465 0.753479L25.4619 0.747427C25.2397 0.659672 25.0143 0.584022 24.7827 0.511397C24.7515 0.502319 24.7233 0.493241 24.692 0.484163C24.1694 0.32681 23.6248 0.208795 23.0615 0.127093C23.0459 0.124067 23.0333 0.124067 23.0177 0.121041C22.7392 0.0817026 22.4575 0.0544684 22.1696 0.0332862C22.1383 0.0302602 22.107 0.0302602 22.0726 0.0272342C21.7909 0.0121041 21.5061 0 21.2182 0C21.212 0 21.2088 0 21.2026 0H21.1994C18.8711 0 16.7524 0.571918 15.1438 1.75207C13.5383 0.571918 11.4165 0 9.08816 0C9.0819 0 9.07877 0 9.07251 0H9.06938C8.78772 0 8.51232 0.0121041 8.24005 0.0272342C8.19311 0.0302602 8.1493 0.0332862 8.10235 0.0363122C7.82382 0.0544684 7.55156 0.0847286 7.28555 0.121041C7.25738 0.124067 7.22921 0.130119 7.20105 0.133145C6.93191 0.172483 6.6659 0.217873 6.40615 0.275368C6.39676 0.278394 6.38737 0.278394 6.37798 0.28142C6.11823 0.338914 5.86161 0.405487 5.61125 0.481137C5.57056 0.493241 5.53301 0.505345 5.49545 0.517449C5.27013 0.587048 5.0448 0.662699 4.82887 0.750453L4.82574 0.756505C1.95283 1.89429 0 4.36352 0 8.34879V18.8067H6.04625V8.86321C6.04625 8.10974 6.17769 7.4894 6.41241 6.99313C6.90374 5.95218 7.86138 5.45894 9.07564 5.45592C10.34 5.45894 11.3226 5.99152 11.7983 7.11417C11.9986 7.58926 12.1113 8.17026 12.1113 8.86624V18.8128H12.1301H18.1575H18.1763V8.86321C18.1763 8.09158 18.314 7.45914 18.5612 6.95682C19.0588 5.9431 20.0071 5.45894 21.2057 5.45592C22.4387 5.45894 23.4058 5.96126 23.894 7.03247C24.1162 7.52269 24.2413 8.13092 24.2413 8.86624V18.8128H30.2876V8.34879Z" fill="white"/>
<path d="M94.5872 8.34879C94.5872 4.35444 92.625 1.88521 89.7458 0.747427L89.7427 0.741375C89.6645 0.711115 89.58 0.689933 89.5017 0.662698C89.3014 0.590074 89.1012 0.520475 88.8946 0.459955C88.7694 0.423643 88.6411 0.393383 88.5128 0.360096C88.325 0.314706 88.1373 0.269316 87.9464 0.233004C87.8087 0.205769 87.671 0.181561 87.5301 0.160379C87.333 0.130119 87.1296 0.105911 86.9293 0.0847286C86.7947 0.0695985 86.6633 0.0544684 86.5287 0.0423643C86.2376 0.0211821 85.9435 0.00907806 85.643 0.00605204C85.5992 0.00605204 85.5585 0 85.5178 0C85.5116 0 85.5085 0 85.5022 0H85.4991C85.4865 0 85.4772 0 85.4678 0C85.1329 0 84.8043 0.0151301 84.4788 0.0393383C84.3568 0.0484163 84.2379 0.0635464 84.1158 0.0756505C83.8999 0.0968326 83.6839 0.124067 83.4743 0.157353C83.3428 0.178535 83.2145 0.202743 83.0862 0.226952C82.8828 0.26629 82.6856 0.31168 82.4885 0.360096C82.3695 0.390357 82.2506 0.417591 82.1317 0.453903C81.9126 0.517449 81.6998 0.590074 81.487 0.66875C81.4182 0.692959 81.343 0.711115 81.2742 0.738349L81.2711 0.744401C78.3919 1.88218 76.4297 4.35142 76.4297 8.34576V18.8037H82.4759V8.86321C82.4759 8.1521 82.5917 7.559 82.8045 7.07483C83.2834 5.97639 84.2598 5.45894 85.5053 5.45289C86.7759 5.45591 87.7617 5.99455 88.2343 7.1293C88.4314 7.60136 88.541 8.17631 88.541 8.86019V18.8067H94.5872V8.34879Z" fill="white"/>
<path d="M128.476 14L121.177 0H114.375L122.167 14L114.375 28H121.177L128.476 14Z" fill="#FFC627"/>
<path d="M127.292 8.06435L129.423 12.1374L135.998 0H129.527L126.328 6.2215L127.292 8.06435Z" fill="white"/>
</svg>
