<svg width="20" height="17" viewBox="0 0 20 17" fill="none" xmlns="http://www.w3.org/2000/svg">
<path d="M20 1.91217C19.2639 2.24678 18.4704 2.46666 17.6482 2.57182C18.4895 2.06513 19.1396 1.26207 19.4455 0.296489C18.652 0.774501 17.7725 1.10911 16.8451 1.30031C16.0899 0.478134 15.0287 0.00012207 13.8241 0.00012207C11.5774 0.00012207 9.74187 1.83569 9.74187 4.10146C9.74187 4.42651 9.78011 4.742 9.84704 5.03836C6.44359 4.86628 3.413 3.23148 1.39579 0.75538C1.04207 1.35767 0.8413 2.06513 0.8413 2.81083C0.8413 4.2353 1.55832 5.49725 2.6673 6.21427C1.98853 6.21427 1.35755 6.02307 0.803059 5.73626V5.76494C0.803059 7.75347 2.21797 9.41695 4.09178 9.7898C3.74761 9.8854 3.38432 9.9332 3.01147 9.9332C2.75335 9.9332 2.49522 9.90452 2.24665 9.85672C2.76291 11.4724 4.26386 12.677 6.07075 12.7057C4.67495 13.8147 2.90631 14.4647 0.975143 14.4647C0.650096 14.4647 0.325048 14.4456 0 14.4074C1.81644 15.5737 3.97706 16.2525 6.29063 16.2525C13.8241 16.2525 17.9637 10.0001 17.9637 4.57947C17.9637 4.39783 17.9637 4.22574 17.9541 4.0441C18.7572 3.47049 19.4455 2.74391 20 1.91217Z" fill="#00B7BD"/>
</svg>
