<svg width="20" height="20" viewBox="0 0 20 20" fill="none" xmlns="http://www.w3.org/2000/svg">
<path d="M8 13.0001L13.19 10.0001L8 7.00012V13.0001ZM19.56 5.17012C19.69 5.64012 19.78 6.27012 19.84 7.07012C19.91 7.87012 19.94 8.56012 19.94 9.16012L20 10.0001C20 12.1901 19.84 13.8001 19.56 14.8301C19.31 15.7301 18.73 16.3101 17.83 16.5601C17.36 16.6901 16.5 16.7801 15.18 16.8401C13.88 16.9101 12.69 16.9401 11.59 16.9401L10 17.0001C5.81 17.0001 3.2 16.8401 2.17 16.5601C1.27 16.3101 0.69 15.7301 0.44 14.8301C0.31 14.3601 0.22 13.7301 0.16 12.9301C0.0900001 12.1301 0.0599999 11.4401 0.0599999 10.8401L0 10.0001C0 7.81012 0.16 6.20012 0.44 5.17012C0.69 4.27012 1.27 3.69012 2.17 3.44012C2.64 3.31012 3.5 3.22012 4.82 3.16012C6.12 3.09012 7.31 3.06012 8.41 3.06012L10 3.00012C14.19 3.00012 16.8 3.16012 17.83 3.44012C18.73 3.69012 19.31 4.27012 19.56 5.17012Z" fill="#00B7BD"/>
</svg>
